<mxfile host="app.diagrams.net" modified="2024-01-31T18:12:26.297Z" agent="Mozilla/5.0 (Windows NT 10.0; Win64; x64) AppleWebKit/537.36 (KHTML, like Gecko) Chrome/120.0.0.0 Safari/537.36" etag="R6nPiMTNXBbrj1mS-fjR" version="23.1.0" type="device">
  <diagram name="Page-1" id="MbQIbKDqfyjmVsS3z59N">
    <mxGraphModel dx="1900" dy="1657" grid="1" gridSize="10" guides="1" tooltips="1" connect="1" arrows="1" fold="1" page="1" pageScale="1" pageWidth="850" pageHeight="1100" math="0" shadow="0">
      <root>
        <mxCell id="0" />
        <mxCell id="1" parent="0" />
        <mxCell id="2" value="User" style="whiteSpace=wrap;strokeWidth=2;" parent="1" vertex="1">
          <mxGeometry x="-380" y="-20" width="48" height="33" as="geometry" />
        </mxCell>
        <mxCell id="3" value="System" style="rounded=1;absoluteArcSize=1;arcSize=14;whiteSpace=wrap;strokeWidth=2;" parent="1" vertex="1">
          <mxGeometry x="425" y="-20" width="65" height="33" as="geometry" />
        </mxCell>
        <mxCell id="4" value="Use case" style="curved=1;startArrow=none;endArrow=block;exitX=0.9953776200612386;exitY=0.5060606291799834;entryX=-0.0033653846153846156;entryY=0.5060606291799834;" parent="1" source="2" target="3" edge="1">
          <mxGeometry relative="1" as="geometry">
            <Array as="points" />
          </mxGeometry>
        </mxCell>
      </root>
    </mxGraphModel>
  </diagram>
</mxfile>
